<svg width="79" height="79" viewBox="0 0 79 79" fill="none" xmlns="http://www.w3.org/2000/svg">
<g clip-path="url(#clip0)">
<path d="M49.4739 22.5276C47.9466 17.4195 47.7501 2.61727 52.9624 1.25994C58.0331 -0.060026 67.8924 11.6249 69.4197 16.733C70.9042 21.6994 66.5755 24.4461 61.7977 25.6901C57.0193 26.9341 50.9584 27.494 49.4739 22.5276Z" fill="#FCCD7F"/>
<path d="M66.8848 33.6088C61.1324 34.581 47.1203 31.2305 45.7178 24.5349C44.3538 18.0212 55.9912 10.0316 61.7441 9.05936C67.3374 8.1143 70.3148 13.9655 71.5999 20.103C72.8855 26.24 72.4786 32.6638 66.8848 33.6088Z" fill="#EAB765"/>
<path d="M71.6003 20.1031C70.6366 15.5025 68.7223 11.0628 65.4682 9.52588C66.6188 11.4926 67.4247 13.9481 67.9491 16.4518C69.2341 22.5893 68.8272 29.0125 63.234 29.9576C59.2331 30.6338 51.2374 29.2186 46.2667 26.0411C49.2574 31.7271 61.5813 34.5051 66.8852 33.6088C72.4785 32.6638 72.8853 26.24 71.6003 20.1031Z" fill="#D9AB5E"/>
<path d="M62.7107 54.1785C54.9368 51.8905 39.4342 39.4606 41.7017 30.5903C43.907 21.9618 63.2496 19.3688 71.0235 21.6568C78.5822 23.8814 78.7908 32.6854 76.7126 40.8155C74.6344 48.9462 70.2695 56.4031 62.7107 54.1785Z" fill="#FCCD7F"/>
<path d="M72.7757 22.3545C74.8032 26.2197 74.4235 31.8365 73.0619 37.1646C70.9832 45.2953 66.6182 52.7522 59.0595 50.5275C55.6487 49.524 50.7504 46.5676 46.5175 42.8163C51.25 48.2167 58.2513 52.8661 62.7108 54.1788C70.2689 56.4035 74.6344 48.9466 76.7126 40.8159C78.616 33.3692 78.5998 25.3585 72.7757 22.3545Z" fill="#FBC56D"/>
<path d="M22.5279 49.4736C17.4199 47.9463 2.6176 47.7493 1.26088 52.9622C-0.0596883 58.0329 11.6259 67.8922 16.7334 69.4189C21.7004 70.904 24.447 66.5753 25.6904 61.7969C26.9344 57.0191 27.4944 50.9581 22.5279 49.4736Z" fill="#FCCD7F"/>
<path d="M33.609 66.8846C34.5812 61.1323 31.2306 47.1196 24.535 45.7176C18.0214 44.3537 10.0317 55.991 9.05949 61.7434C8.11442 67.3373 13.9656 70.3147 20.1032 71.5997C26.2407 72.8847 32.6639 72.4779 33.609 66.8846Z" fill="#EAB765"/>
<path d="M26.0418 46.2666C29.2187 51.2373 30.6339 59.2324 29.9583 63.2338C29.0126 68.8271 22.5894 69.2339 16.4519 67.9489C13.9488 67.4246 11.4927 66.6181 9.526 65.4681C11.0629 68.7222 15.5026 70.6365 20.1032 71.5996C26.2407 72.8852 32.6639 72.4778 33.609 66.8845C34.5052 61.5812 31.7273 49.2573 26.0418 46.2666Z" fill="#D9AB5E"/>
<path d="M54.1787 62.7107C51.8907 54.9368 39.4614 39.4342 30.5911 41.7017C21.962 43.907 19.3691 63.249 21.6576 71.0235C23.8822 78.5816 32.6856 78.7908 40.8157 76.7126C48.9464 74.6344 56.4033 70.2689 54.1787 62.7107Z" fill="#FCCD7F"/>
<path d="M54.1787 62.7109C52.866 58.2514 48.2166 51.2502 42.8162 46.5176C46.5675 50.7505 49.5239 55.6488 50.528 59.0596C52.7527 66.6184 45.2952 70.9833 37.1651 73.0621C31.837 74.4236 26.2202 74.8033 22.3544 72.7758C25.3583 78.5999 33.3691 78.6161 40.8157 76.7128C48.9465 74.6346 56.4033 70.2691 54.1787 62.7109Z" fill="#FBC56D"/>
<path d="M44.5496 70.8935C37.669 64.0134 26.1214 44.8095 35.4088 35.5215C43.8457 27.0846 64.0133 37.669 70.894 44.5497C77.5836 51.2393 72.6124 60.259 66.4357 66.4357C60.2596 72.6118 51.2393 77.5837 44.5496 70.8935Z" fill="#EAB765"/>
<path d="M70.8941 44.5499C70.2449 43.9008 69.4777 43.2191 68.6133 42.5229C73.1404 48.9944 68.4735 57.0956 62.7844 62.7847C57.0646 68.5051 48.9055 73.1907 42.4172 68.537C43.1568 69.4267 43.8758 70.2204 44.5497 70.8937C51.2393 77.5839 60.259 72.612 66.4357 66.436C72.6118 60.2593 77.5837 51.2395 70.8941 44.5499Z" fill="#D9AB5E"/>
<path d="M78.614 28.7828C77.8497 25.161 75.9156 22.5584 72.9779 21.1643C72.1739 16.3866 70.121 10.2117 65.6338 8.34143C62.8034 4.89989 56.9919 -0.984491 52.6704 0.140189C47.5985 1.46075 47.1501 11.434 47.446 16.6765C45.5161 18.9686 43.9701 21.8376 44.5849 24.7722C44.5909 24.8018 44.5976 24.8313 44.6042 24.8602C42.2771 26.5563 40.6093 28.7562 40.3568 31.6246C35.5838 32.692 32.4702 36.139 31.3136 40.3894C28.573 40.7341 26.4797 42.379 24.862 44.6042C21.9111 43.9382 19.0048 45.4854 16.6764 47.446C11.4201 47.1489 1.46012 47.6021 0.140158 52.6704C-0.985727 56.9968 4.91432 62.8155 8.342 65.6344C10.2122 70.1211 16.3859 72.1727 21.1607 72.9768C24.1924 79.4349 32.1176 79.7303 39.1013 78.2952C39.7276 78.1668 40.1308 77.555 40.0024 76.9288C39.8734 76.3032 39.2617 75.9 38.636 76.0283C32.0899 77.373 24.6637 77.1404 22.767 70.6967C20.5417 63.1361 23.2684 44.7838 30.8663 42.8256C29.8929 52.3522 37.3335 65.3143 43.7308 71.7116C44.5017 72.4825 45.322 73.1286 46.1869 73.6476C45.2684 74.0653 44.2727 74.4528 43.2077 74.8072C42.6013 75.0091 42.2729 75.6643 42.4748 76.2712C42.6363 76.7558 43.0883 77.0632 43.5729 77.0632C43.6941 77.0632 43.817 77.0439 43.9388 77.0035C45.8157 76.3785 47.5039 75.6522 48.9643 74.841C51.3173 75.4865 53.7258 75.2966 56.0222 74.5963C65.0118 71.8533 77.549 58.8441 74.841 48.9643C77.6828 43.8514 79.8918 34.8413 78.614 28.7828ZM7.84174 62.1217C4.07352 58.6 1.89046 55.1344 2.38048 53.2539C2.95427 51.0491 7.92673 49.6285 14.3759 49.684C11.5642 52.797 8.23291 58.2004 7.84174 62.1217ZM20.3157 70.4616C10.6064 68.422 9.81023 64.2451 10.2002 61.9361C11.085 56.7033 18.1043 46.6721 23.5228 46.7644C19.9233 53.5317 18.9107 64.3602 20.3157 70.4616ZM53.2538 2.38051C55.1337 1.88989 58.6 4.07295 62.1217 7.84117C58.1648 8.23716 52.7898 11.5708 49.6839 14.3759C49.6285 7.92615 51.0491 2.9543 53.2538 2.38051ZM55.3471 72.3825C51.4463 73.5722 48.0885 72.7965 45.3678 70.0752C37.7271 62.4345 28.0733 44.4927 36.2269 36.3397C43.6826 28.884 62.8305 38.1231 70.0752 45.3673C79.0962 54.3882 64.0637 69.7227 55.3471 72.3825ZM73.6488 46.1882C69.9547 40.038 53.6516 30.5294 42.7339 31.2859C43.4036 27.5363 47.9216 25.2201 51.5415 24.0062C52.9917 23.5204 52.2588 21.3241 50.8062 21.8123C49.3054 22.3149 47.9565 22.8863 46.7643 23.5198C46.6763 18.1103 56.6906 11.0868 61.9367 10.2002C64.2451 9.81026 68.422 10.6065 70.4622 20.3157C66.6427 19.4375 60.9795 19.5135 55.6768 20.5447C54.1736 20.8371 54.616 23.1087 56.1186 22.8164C61.4298 21.7839 67.2882 21.7641 70.6966 22.767C73.7693 23.6717 75.6185 25.7957 76.3496 29.2601C77.4146 34.3103 75.6932 41.6961 73.6488 46.1882Z" fill="black"/>
</g>
<defs>
<clipPath id="clip0">
<rect width="79" height="79" fill="white"/>
</clipPath>
</defs>
</svg>
