<svg width="29" height="9" viewBox="0 0 29 9" fill="none"
    xmlns="http://www.w3.org/2000/svg">
    <path d="M0.445312 3.17773C1.20312 3.09961 1.86328 2.93945 2.42578 2.69727C2.52344 2.73633 2.5918 2.78711 2.63086 2.84961C2.63086 4.87695 2.64648 6.32617 2.67773 7.19727C2.68164 7.29883 2.71094 7.38672 2.76562 7.46094C2.82422 7.53125 2.90625 7.58594 3.01172 7.625C3.11719 7.66406 3.20508 7.69336 3.27539 7.71289C3.3457 7.72852 3.4375 7.74414 3.55078 7.75977C3.57422 7.80664 3.58594 7.85547 3.58594 7.90625C3.58594 7.95703 3.57422 8 3.55078 8.03516C3.03516 8.01172 2.53516 8 2.05078 8C1.57422 8 1.07812 8.01172 0.5625 8.03516C0.546875 7.97266 0.539062 7.92969 0.539062 7.90625C0.539062 7.88672 0.546875 7.83789 0.5625 7.75977C0.691406 7.74414 0.796875 7.72852 0.878906 7.71289C0.960938 7.69336 1.0625 7.66406 1.18359 7.625C1.30469 7.58594 1.39648 7.53125 1.45898 7.46094C1.52148 7.38672 1.55469 7.29883 1.55859 7.19727C1.57422 6.81055 1.58203 6.3418 1.58203 5.79102C1.58203 5.60742 1.58008 5.29492 1.57617 4.85352C1.57227 4.41211 1.57031 4.02539 1.57031 3.69336C1.34766 3.55664 0.972656 3.47656 0.445312 3.45312C0.429688 3.39062 0.421875 3.3418 0.421875 3.30664C0.421875 3.2832 0.429688 3.24023 0.445312 3.17773ZM1.36523 0.728516C1.36523 0.529297 1.43555 0.359375 1.57617 0.21875C1.7207 0.078125 1.89062 0.0078125 2.08594 0.0078125C2.28516 0.0078125 2.45508 0.078125 2.5957 0.21875C2.73633 0.359375 2.80664 0.529297 2.80664 0.728516C2.80664 0.923828 2.73633 1.09375 2.5957 1.23828C2.45508 1.37891 2.28516 1.44922 2.08594 1.44922C1.89062 1.44922 1.7207 1.37891 1.57617 1.23828C1.43555 1.09375 1.36523 0.923828 1.36523 0.728516ZM11.2238 7.75977C11.3214 7.74414 11.4015 7.72852 11.464 7.71289C11.5304 7.69336 11.6027 7.66406 11.6808 7.625C11.7589 7.58594 11.8175 7.53125 11.8566 7.46094C11.8956 7.38672 11.9152 7.29883 11.9152 7.19727L11.9269 4.41406C11.9269 3.70703 11.7159 3.35352 11.2941 3.35352C11.0831 3.35352 10.8546 3.41992 10.6085 3.55273C10.3624 3.68555 10.0675 3.88477 9.72375 4.15039V4.2207L9.77063 7.19727C9.77453 7.29883 9.80383 7.38672 9.85852 7.46094C9.91711 7.53125 9.99914 7.58594 10.1046 7.625C10.2101 7.66406 10.298 7.69336 10.3683 7.71289C10.4386 7.72852 10.5304 7.74414 10.6437 7.75977C10.6593 7.83789 10.6671 7.89062 10.6671 7.91797C10.6671 7.94922 10.6593 7.98828 10.6437 8.03516C10.1398 8.01172 9.68078 8 9.26672 8C8.88781 8 8.44641 8.01172 7.9425 8.03516C7.92688 7.97266 7.91906 7.92578 7.91906 7.89453C7.91906 7.86719 7.92688 7.82227 7.9425 7.75977C8.04016 7.74414 8.12219 7.72852 8.18859 7.71289C8.255 7.69336 8.32727 7.66406 8.40539 7.625C8.48352 7.58594 8.54211 7.53125 8.58117 7.46094C8.62023 7.38672 8.63977 7.29883 8.63977 7.19727L8.65148 4.41406C8.65148 3.70703 8.44055 3.35352 8.01867 3.35352C7.80773 3.35352 7.58313 3.41797 7.34484 3.54688C7.11047 3.67578 6.81555 3.87305 6.46008 4.13867C6.46008 5.2832 6.4757 6.30273 6.50695 7.19727C6.51086 7.29883 6.5382 7.38672 6.58898 7.46094C6.63977 7.53125 6.71203 7.58594 6.80578 7.625C6.90344 7.66406 6.98742 7.69336 7.05773 7.71289C7.12805 7.72852 7.21594 7.74414 7.32141 7.75977C7.34484 7.80664 7.35656 7.85547 7.35656 7.90625C7.35656 7.94531 7.34484 7.98828 7.32141 8.03516C6.80578 8.01172 6.32531 8 5.88 8C5.40344 8 4.90734 8.01172 4.39172 8.03516C4.37609 7.97266 4.36828 7.92969 4.36828 7.90625C4.36828 7.88672 4.37609 7.83789 4.39172 7.75977C4.52063 7.74414 4.62609 7.72852 4.70813 7.71289C4.79016 7.69336 4.89172 7.66406 5.01281 7.625C5.13391 7.58594 5.2257 7.53125 5.2882 7.46094C5.3507 7.38672 5.38391 7.29883 5.38781 7.19727C5.40344 6.81055 5.41125 6.3418 5.41125 5.79102C5.41125 5.60742 5.4093 5.29492 5.40539 4.85352C5.40148 4.41211 5.39953 4.02539 5.39953 3.69336C5.17688 3.55664 4.80188 3.47656 4.27453 3.45312C4.25891 3.39062 4.25109 3.3418 4.25109 3.30664C4.25109 3.2832 4.25891 3.24023 4.27453 3.17773C5.03234 3.09961 5.6925 2.93945 6.255 2.69727C6.35266 2.73633 6.42102 2.78711 6.46008 2.84961V3.77539C6.64367 3.60742 6.79797 3.47266 6.92297 3.37109C7.04797 3.26562 7.20031 3.15234 7.38 3.03125C7.56359 2.91016 7.74523 2.82031 7.92492 2.76172C8.10852 2.70312 8.29602 2.67383 8.48742 2.67383C8.87023 2.67383 9.15539 2.76562 9.34289 2.94922C9.53039 3.12891 9.64758 3.41211 9.69445 3.79883C9.89367 3.61914 10.0519 3.48047 10.1691 3.38281C10.2902 3.28516 10.4464 3.17188 10.6378 3.04297C10.8292 2.91406 11.0167 2.82031 11.2003 2.76172C11.3839 2.70312 11.5714 2.67383 11.7628 2.67383C12.2042 2.67383 12.5187 2.79883 12.7062 3.04883C12.8937 3.29883 12.9913 3.68945 12.9991 4.2207L13.0577 7.19727C13.0616 7.29883 13.0909 7.38672 13.1456 7.46094C13.2042 7.53125 13.2863 7.58594 13.3917 7.625C13.4972 7.66406 13.5851 7.69336 13.6554 7.71289C13.7257 7.72852 13.8175 7.74414 13.9308 7.75977C13.9503 7.85742 13.9601 7.91016 13.9601 7.91797C13.9601 7.9375 13.9503 7.97656 13.9308 8.03516C13.4269 8.01172 12.964 8 12.5421 8C12.1671 8 11.7277 8.01172 11.2238 8.03516C11.2042 7.95703 11.1945 7.91016 11.1945 7.89453C11.1945 7.88281 11.2042 7.83789 11.2238 7.75977ZM14.5842 3.17773C15.342 3.09961 16.0022 2.93945 16.5647 2.69727C16.6623 2.73633 16.7307 2.78711 16.7698 2.84961C16.7698 4.87695 16.7854 6.32617 16.8166 7.19727C16.8205 7.29883 16.8498 7.38672 16.9045 7.46094C16.9631 7.53125 17.0452 7.58594 17.1506 7.625C17.2561 7.66406 17.344 7.69336 17.4143 7.71289C17.4846 7.72852 17.5764 7.74414 17.6897 7.75977C17.7131 7.80664 17.7248 7.85547 17.7248 7.90625C17.7248 7.95703 17.7131 8 17.6897 8.03516C17.1741 8.01172 16.6741 8 16.1897 8C15.7131 8 15.217 8.01172 14.7014 8.03516C14.6858 7.97266 14.678 7.92969 14.678 7.90625C14.678 7.88672 14.6858 7.83789 14.7014 7.75977C14.8303 7.74414 14.9358 7.72852 15.0178 7.71289C15.0998 7.69336 15.2014 7.66406 15.3225 7.625C15.4436 7.58594 15.5354 7.53125 15.5979 7.46094C15.6604 7.38672 15.6936 7.29883 15.6975 7.19727C15.7131 6.81055 15.7209 6.3418 15.7209 5.79102C15.7209 5.60742 15.719 5.29492 15.7151 4.85352C15.7112 4.41211 15.7092 4.02539 15.7092 3.69336C15.4866 3.55664 15.1116 3.47656 14.5842 3.45312C14.5686 3.39062 14.5608 3.3418 14.5608 3.30664C14.5608 3.2832 14.5686 3.24023 14.5842 3.17773ZM15.5041 0.728516C15.5041 0.529297 15.5745 0.359375 15.7151 0.21875C15.8596 0.078125 16.0295 0.0078125 16.2248 0.0078125C16.4241 0.0078125 16.594 0.078125 16.7346 0.21875C16.8752 0.359375 16.9455 0.529297 16.9455 0.728516C16.9455 0.923828 16.8752 1.09375 16.7346 1.23828C16.594 1.37891 16.4241 1.44922 16.2248 1.44922C16.0295 1.44922 15.8596 1.37891 15.7151 1.23828C15.5745 1.09375 15.5041 0.923828 15.5041 0.728516ZM20.0775 1.67773C20.1166 1.66211 20.1615 1.6543 20.2123 1.6543C20.263 1.6543 20.3158 1.66211 20.3705 1.67773V2.96094H22.1459C22.1693 3.01953 22.181 3.0918 22.181 3.17773C22.181 3.25195 22.1693 3.32031 22.1459 3.38281H20.3705V6.51172C20.3705 7.12891 20.6537 7.4375 21.2201 7.4375C21.4349 7.4375 21.6185 7.39648 21.7709 7.31445C21.9271 7.23242 22.099 7.10938 22.2865 6.94531C22.3841 6.95703 22.4486 7.00391 22.4798 7.08594C22.308 7.39453 22.0541 7.65234 21.7181 7.85938C21.3822 8.06641 21.013 8.16992 20.6107 8.16992C19.6654 8.16992 19.1927 7.59766 19.1927 6.45312V3.38281H18.472C18.4564 3.3125 18.4486 3.26758 18.4486 3.24805C18.4486 3.24414 18.4564 3.19922 18.472 3.11328C18.6595 3.01953 18.8021 2.94336 18.8998 2.88477C19.0013 2.82227 19.1283 2.73438 19.2806 2.62109C19.4369 2.50781 19.5775 2.375 19.7025 2.22266C19.8314 2.06641 19.9564 1.88477 20.0775 1.67773ZM23.5434 4.15039C23.5434 3.7207 23.7388 3.36719 24.1294 3.08984C24.5239 2.8125 24.9888 2.67383 25.5239 2.67383C26.1802 2.67383 26.6411 2.80469 26.9067 3.06641C27.1763 3.32812 27.311 3.76953 27.311 4.39062V6.82227C27.311 7.04102 27.3911 7.15039 27.5513 7.15039C27.6802 7.15039 27.8442 6.99414 28.0434 6.68164C28.1841 6.69336 28.2798 6.75586 28.3305 6.86914C28.3032 6.9082 28.2563 6.97852 28.1899 7.08008C28.1235 7.18164 28.0747 7.25391 28.0434 7.29688C28.0122 7.33984 27.9634 7.40625 27.897 7.49609C27.8305 7.58203 27.7759 7.64648 27.7329 7.68945C27.6938 7.73242 27.6391 7.7832 27.5688 7.8418C27.5024 7.90039 27.4399 7.94531 27.3813 7.97656C27.3266 8.00391 27.2622 8.02734 27.188 8.04688C27.1138 8.07031 27.0395 8.08203 26.9653 8.08203C26.77 8.08203 26.6079 8.01172 26.479 7.87109C26.354 7.73047 26.2798 7.51367 26.2563 7.2207C26.2524 7.22461 26.1919 7.28125 26.0747 7.39062C25.9575 7.5 25.8755 7.57422 25.8286 7.61328C25.7856 7.64844 25.7016 7.71289 25.5766 7.80664C25.4555 7.89648 25.352 7.96094 25.2661 8C25.1802 8.03906 25.0727 8.07617 24.9438 8.11133C24.8149 8.15039 24.688 8.16992 24.563 8.16992C24.3638 8.16992 24.186 8.14258 24.0298 8.08789C23.8774 8.0332 23.7583 7.9668 23.6723 7.88867C23.5864 7.81055 23.5161 7.7207 23.4614 7.61914C23.4067 7.51367 23.3696 7.41797 23.3501 7.33203C23.3345 7.24609 23.3266 7.16016 23.3266 7.07422C23.3266 6.8125 23.3696 6.5918 23.4555 6.41211C23.5454 6.23242 23.7095 6.06445 23.9477 5.9082C24.1899 5.75195 24.4868 5.61328 24.8384 5.49219C25.1899 5.37109 25.6626 5.23438 26.2563 5.08203V4.26758C26.2563 3.87305 26.1684 3.57812 25.9927 3.38281C25.8208 3.1875 25.5884 3.08984 25.2954 3.08984C25.0337 3.08984 24.813 3.14258 24.6333 3.24805C24.4575 3.34961 24.3501 3.46875 24.311 3.60547C24.6938 3.66406 24.8852 3.87305 24.8852 4.23242C24.8852 4.39648 24.8266 4.54102 24.7095 4.66602C24.5923 4.79102 24.4282 4.85352 24.2173 4.85352C24.0415 4.85352 23.8852 4.79297 23.7485 4.67188C23.6118 4.54688 23.5434 4.37305 23.5434 4.15039ZM26.2563 6.68164V5.45703C25.897 5.53906 25.6001 5.62891 25.3657 5.72656C25.1313 5.82031 24.9516 5.92383 24.8266 6.03711C24.7055 6.15039 24.6216 6.26758 24.5747 6.38867C24.5278 6.50586 24.5044 6.64258 24.5044 6.79883C24.5044 6.99414 24.561 7.14844 24.6743 7.26172C24.7915 7.37109 24.9341 7.42578 25.102 7.42578C25.4927 7.42578 25.8774 7.17773 26.2563 6.68164Z" fill="#202020"/>
</svg>
