<svg width="84" height="20" viewBox="0 0 84 20" fill="none" xmlns="http://www.w3.org/2000/svg">
<path d="M4.36615 18.7046C3.84103 18.9015 3.28308 19 2.69231 19C2.10154 19 1.58462 18.8113 1.14154 18.4338C0.714872 18.0564 0.501538 17.5395 0.501538 16.8831C0.501538 16.2267 0.58359 14.9713 0.747692 13.1169C0.911795 11.2462 0.993846 9.75282 0.993846 8.63692C0.993846 5.76513 0.821538 3.49231 0.476923 1.81846C1.00205 1.62154 1.56 1.52308 2.15077 1.52308C2.74154 1.52308 3.25026 1.71179 3.67692 2.08923C4.12 2.46667 4.34154 2.98359 4.34154 3.64C4.34154 4.29641 4.25949 5.56 4.09538 7.43077C3.93128 9.28513 3.84923 10.7703 3.84923 11.8862C3.84923 14.7579 4.02154 17.0308 4.36615 18.7046ZM25.9371 9.05538L25.691 14.3231C25.691 15.9149 25.9207 17.4246 26.3802 18.8523C25.9207 19.0492 25.3956 19.1477 24.8048 19.1477C23.4099 19.1477 22.7125 18.3682 22.7125 16.8092C22.7125 16.1036 22.8028 14.9221 22.9833 13.2646C23.1638 11.5908 23.254 10.5405 23.254 10.1138C23.254 9.29333 22.9176 8.88308 22.2448 8.88308C21.5063 8.88308 20.6202 9.63795 19.5863 11.1477C18.5689 12.6574 18.0602 13.839 18.0602 14.6923C18.1422 15.9887 18.372 17.2769 18.7494 18.5569C18.1258 18.7538 17.6007 18.8523 17.174 18.8523C15.7792 18.8523 15.0817 18.0728 15.0817 16.5138C15.0817 15.8574 15.172 14.7579 15.3525 13.2154C15.533 11.6728 15.6233 10.7046 15.6233 10.3108C15.6233 9.49026 15.254 9.08 14.5156 9.08C14.0069 9.08 13.4243 9.45744 12.7679 10.2123C12.1115 10.9672 11.5535 11.8041 11.094 12.7231C10.651 13.6256 10.413 14.3477 10.3802 14.8892C10.4622 16.3005 10.6263 17.5723 10.8725 18.7046C10.3474 18.9015 9.79763 19 9.22327 19C8.66532 19 8.20583 18.8687 7.84481 18.6062C7.50019 18.3272 7.32788 17.9497 7.32788 17.4738C7.32788 16.9815 7.40173 16.1118 7.54942 14.8646C7.69712 13.601 7.77096 12.3538 7.77096 11.1231C7.77096 9.8759 7.58224 8.44821 7.20481 6.84C7.72994 6.64308 8.28788 6.54462 8.87865 6.54462C9.46942 6.54462 9.94532 6.71692 10.3063 7.06154C10.6838 7.40615 10.8725 7.86564 10.8725 8.44C10.8725 8.73538 10.8151 9.45744 10.7002 10.6062C11.3074 9.52308 12.0787 8.58769 13.014 7.8C13.9494 6.9959 14.8848 6.59385 15.8202 6.59385C17.4776 6.59385 18.3063 7.48 18.3063 9.25231C18.3063 9.69538 18.2817 10.1877 18.2325 10.7292C18.8397 9.58051 19.6192 8.57128 20.571 7.70154C21.5392 6.8318 22.4992 6.39692 23.451 6.39692C25.1084 6.39692 25.9371 7.28308 25.9371 9.05538ZM28.9842 6.76615C29.5094 6.61846 30.0345 6.54462 30.5596 6.54462C31.1012 6.54462 31.5606 6.70872 31.9381 7.03692C32.3155 7.36513 32.5042 7.7918 32.5042 8.31692C32.5042 8.82564 32.414 9.72 32.2335 11C32.0694 12.2636 31.9873 13.2482 31.9873 13.9538C31.9873 15.7918 32.1596 17.3754 32.5042 18.7046C31.9955 18.9015 31.4458 19 30.855 19C30.2642 19 29.7965 18.8687 29.4519 18.6062C29.1073 18.3272 28.935 17.9333 28.935 17.4246C28.935 16.8995 29.0335 16.0462 29.2304 14.8646C29.4273 13.6831 29.5258 12.7067 29.5258 11.9354C29.5258 9.8841 29.3453 8.16103 28.9842 6.76615ZM29.3042 1.20308C29.8786 0.940513 30.4447 0.809231 31.0027 0.809231C31.5606 0.809231 31.9709 0.956924 32.2335 1.25231C32.5124 1.53128 32.6519 1.94974 32.6519 2.50769C32.6519 3.06564 32.4632 3.55795 32.0858 3.98462C31.7247 4.41128 31.2488 4.62461 30.6581 4.62461C29.4437 4.62461 28.8365 3.99282 28.8365 2.72923C28.8365 2.17128 28.9924 1.66256 29.3042 1.20308ZM36.1198 2.92615C36.6449 2.66359 37.1783 2.53231 37.7198 2.53231C38.2613 2.53231 38.6962 2.70462 39.0244 3.04923C39.369 3.39385 39.5413 3.90256 39.5413 4.57538C39.5413 5.24821 39.5003 6.01128 39.4183 6.86462C40.649 6.86462 41.8224 6.69231 42.9383 6.34769C43.1352 6.6759 43.2337 7.06154 43.2337 7.50462C43.2337 7.93128 43.0367 8.2841 42.6429 8.56308C42.2654 8.82564 41.8798 8.95692 41.486 8.95692C41.0921 8.95692 40.649 8.90769 40.1567 8.80923C39.6644 8.71077 39.3444 8.65333 39.1967 8.63692C39.1803 8.78462 39.1311 9.08 39.049 9.52308C38.9834 9.96615 38.926 10.3518 38.8767 10.68C38.7454 11.5826 38.6798 12.5508 38.6798 13.5846C38.6798 15.8328 39.4101 16.9569 40.8706 16.9569C41.4121 16.9569 42.0357 16.7682 42.7413 16.3908C42.9547 16.7026 43.0613 17.1046 43.0613 17.5969C43.0613 18.0892 42.7906 18.4749 42.249 18.7538C41.7239 19.0164 41.0921 19.1477 40.3537 19.1477C37.4654 19.1477 36.0213 17.5067 36.0213 14.2246C36.0213 13.7487 36.087 12.8872 36.2183 11.64C36.366 10.3928 36.4398 9.38359 36.4398 8.61231C35.6521 8.66154 35.0203 8.80103 34.5444 9.03077C34.3475 8.73538 34.249 8.39897 34.249 8.02154C34.249 7.62769 34.3885 7.30769 34.6675 7.06154C34.9465 6.79897 35.2911 6.66769 35.7013 6.66769C36.1116 6.66769 36.3824 6.6759 36.5137 6.69231C36.5301 6.56103 36.5383 6.38872 36.5383 6.17538C36.5383 4.94462 36.3988 3.86154 36.1198 2.92615ZM56.1206 7.40615C55.6775 9.29333 55.456 11.1887 55.456 13.0923C55.456 14.9795 55.6693 16.8503 56.096 18.7046C55.5052 18.9015 54.898 19 54.2744 19C53.6508 19 53.216 18.8195 52.9698 18.4585C52.7237 18.081 52.6006 17.5477 52.6006 16.8585C52.6006 16.1528 52.7072 15.1928 52.9206 13.9785C51.7554 16.4728 50.6313 18.0482 49.5483 18.7046C49.056 19 48.5472 19.1477 48.0221 19.1477C46.7749 19.1477 45.8067 18.6882 45.1175 17.7692C44.4283 16.8338 44.0837 15.6769 44.0837 14.2985C44.0837 12.1979 44.6662 10.36 45.8313 8.78462C46.9965 7.19282 48.5062 6.39692 50.3606 6.39692C52.2313 6.39692 54.1513 6.73333 56.1206 7.40615ZM52.896 8.88308C52.0262 8.62051 51.2878 8.48923 50.6806 8.48923C49.4498 8.48923 48.5308 8.76 47.9237 9.30154C47.3657 10.68 47.0867 12.0831 47.0867 13.5108C47.0867 14.2656 47.2016 15.0287 47.4313 15.8C47.6775 16.5713 48.0467 16.9569 48.539 16.9569C49.1134 16.9569 49.8519 16.1118 50.7544 14.4215C51.657 12.7313 52.3708 10.8851 52.896 8.88308ZM59.2448 2.92615C59.7699 2.66359 60.3033 2.53231 60.8448 2.53231C61.3863 2.53231 61.8212 2.70462 62.1494 3.04923C62.494 3.39385 62.6663 3.90256 62.6663 4.57538C62.6663 5.24821 62.6253 6.01128 62.5433 6.86462C63.774 6.86462 64.9474 6.69231 66.0633 6.34769C66.2602 6.6759 66.3587 7.06154 66.3587 7.50462C66.3587 7.93128 66.1617 8.2841 65.7679 8.56308C65.3904 8.82564 65.0048 8.95692 64.611 8.95692C64.2171 8.95692 63.774 8.90769 63.2817 8.80923C62.7894 8.71077 62.4694 8.65333 62.3217 8.63692C62.3053 8.78462 62.2561 9.08 62.174 9.52308C62.1084 9.96615 62.051 10.3518 62.0017 10.68C61.8704 11.5826 61.8048 12.5508 61.8048 13.5846C61.8048 15.8328 62.5351 16.9569 63.9956 16.9569C64.5371 16.9569 65.1607 16.7682 65.8663 16.3908C66.0797 16.7026 66.1863 17.1046 66.1863 17.5969C66.1863 18.0892 65.9156 18.4749 65.374 18.7538C64.8489 19.0164 64.2171 19.1477 63.4787 19.1477C60.5904 19.1477 59.1463 17.5067 59.1463 14.2246C59.1463 13.7487 59.212 12.8872 59.3433 11.64C59.491 10.3928 59.5648 9.38359 59.5648 8.61231C58.7771 8.66154 58.1453 8.80103 57.6694 9.03077C57.4725 8.73538 57.374 8.39897 57.374 8.02154C57.374 7.62769 57.5135 7.30769 57.7925 7.06154C58.0715 6.79897 58.4161 6.66769 58.8263 6.66769C59.2366 6.66769 59.5074 6.6759 59.6387 6.69231C59.6551 6.56103 59.6633 6.38872 59.6633 6.17538C59.6633 4.94462 59.5238 3.86154 59.2448 2.92615ZM70.2117 13.4123C70.2117 14.5938 70.4004 15.5292 70.7779 16.2185C71.1553 16.8913 71.7871 17.2277 72.6733 17.2277C73.5594 17.2277 74.2487 16.9323 74.741 16.3415C75.2497 15.7344 75.504 15.0041 75.504 14.1508C76.062 14.1508 76.5461 14.2903 76.9563 14.5692C77.3666 14.8482 77.5717 15.2338 77.5717 15.7262C77.5717 16.7436 77.0302 17.5969 75.9471 18.2862C74.864 18.959 73.7235 19.2954 72.5256 19.2954C70.6548 19.2954 69.301 18.7949 68.464 17.7938C67.6271 16.7764 67.2087 15.2749 67.2087 13.2892C67.2087 11.3036 67.7666 9.63795 68.8825 8.29231C70.0148 6.93026 71.5163 6.24923 73.3871 6.24923C74.6671 6.24923 75.6928 6.54462 76.464 7.13538C77.2517 7.70974 77.6456 8.61231 77.6456 9.84308C77.6456 11.0574 77.0876 11.9764 75.9717 12.6C74.8722 13.2072 73.5266 13.5108 71.9348 13.5108C71.3769 13.5108 70.8025 13.4779 70.2117 13.4123ZM70.2363 11.4677C70.7287 11.5662 71.2456 11.6154 71.7871 11.6154C72.9687 11.6154 73.9615 11.3938 74.7656 10.9508C74.864 10.5569 74.9133 10.2451 74.9133 10.0154C74.9133 9.44103 74.7081 9.00615 74.2979 8.71077C73.8876 8.41538 73.3215 8.26769 72.5994 8.26769C71.8938 8.26769 71.2538 8.49744 70.6794 8.95692C70.384 9.81026 70.2363 10.6472 70.2363 11.4677ZM80.3613 15.7015C80.8865 15.4226 81.4198 15.2831 81.9613 15.2831C83.1757 15.2831 83.7829 15.8492 83.7829 16.9815C83.7829 17.5887 83.5778 18.1056 83.1675 18.5323C82.7572 18.9426 82.2649 19.1477 81.6906 19.1477C81.1162 19.1477 80.6731 18.9836 80.3613 18.6554C80.066 18.3272 79.9183 17.8841 79.9183 17.3262C79.9183 16.7518 80.066 16.2103 80.3613 15.7015Z" fill="black"/>
</svg>
