<svg width="260" height="140" viewBox="0 0 260 140" fill="none" xmlns="http://www.w3.org/2000/svg">
<mask id="mask0" mask-type="alpha" maskUnits="userSpaceOnUse" x="0" y="0" width="260" height="140">
<path d="M42 21C26.0539 21 13.0759 33.9752 13.0759 49.9241C13.0759 51.4697 14.3303 52.7241 15.876 52.7241C17.4216 52.7241 18.676 51.4697 18.676 49.9241C18.676 37.0637 29.1396 26.6001 42 26.6001C54.8604 26.6001 65.3239 37.0637 65.3239 49.9241C65.3239 58.3324 62.0507 61.53 57.5036 65.9681C52.5531 70.8036 46.3931 76.818 46.3931 89.796C46.3931 95.0936 42.0838 99.4001 36.7862 99.4001C31.4914 99.4001 27.1822 95.0936 27.1822 89.796C27.1822 88.2476 25.9278 86.9959 24.3821 86.9959C22.8365 86.9959 21.5821 88.2476 21.5821 89.796C21.5821 98.1793 28.4028 105 36.7861 105C45.1693 105 51.9929 98.1793 51.9929 89.796C51.9929 79.1784 56.7837 74.4996 61.4317 69.9581C66.0993 65.4024 70.9237 60.6956 70.9237 49.9241C70.924 33.9752 57.9488 21 42 21Z" fill="black"/>
<path d="M43.3523 63.6244C42.5207 60.3679 40.471 57.6352 37.5872 55.9273C35.2435 54.5329 32.5696 53.9505 29.8591 54.2305C28.3219 54.3902 27.2048 55.7706 27.3672 57.3077C27.5268 58.845 28.8764 59.9453 30.4444 59.7996C31.9452 59.6456 33.4264 59.9676 34.7284 60.7432C36.3299 61.6896 37.4639 63.2044 37.9259 65.0104C38.3907 66.8192 38.1192 68.6981 37.1672 70.2996C36.2151 71.9068 34.6975 73.0408 32.8915 73.5028C31.0855 73.962 29.2095 73.6933 27.6051 72.7412C26.275 71.9544 24.5558 72.3913 23.7691 73.7212C22.9823 75.0512 23.4192 76.7704 24.7491 77.5599C26.7175 78.7275 28.9155 79.3267 31.147 79.3267C32.1915 79.3267 33.2415 79.1951 34.2746 78.929C37.531 78.0974 40.2666 76.0477 41.9801 73.161C43.6995 70.2688 44.1839 66.8835 43.3523 63.6244Z" fill="black"/>
<path d="M43.4644 34.0592C34.4568 34.0592 27.1292 41.3897 27.1292 50.3972C27.1292 51.9428 28.3836 53.1973 29.9292 53.1973C31.4748 53.1973 32.7293 51.9428 32.7293 50.3972C32.7293 44.4752 37.5453 39.6592 43.4645 39.6592C49.3809 39.6592 54.197 44.4752 54.197 50.3972C54.197 51.9428 55.4486 53.1973 56.9971 53.1973C58.5455 53.1973 59.7971 51.9428 59.7971 50.3972C59.7968 41.3895 52.4691 34.0592 43.4644 34.0592Z" fill="black"/>
<path d="M32.6787 49.2771C32.6255 47.7315 31.3458 46.5248 29.7863 46.5724C28.2406 46.6256 27.0282 47.9192 27.0815 49.4648L27.3307 56.9128C27.3811 58.4276 28.6244 59.6203 30.128 59.6203C30.1588 59.6203 30.1895 59.6203 30.2232 59.6175C31.7688 59.5643 32.9812 58.2707 32.9279 56.7251L32.6787 49.2771Z" fill="black"/>
<g clip-path="url(#clip0)">
<path d="M193.87 96.4972C193.18 96.4972 192.49 96.234 191.964 95.7077C182.709 86.4525 182.709 71.3934 191.964 62.1382C193.016 61.0857 194.723 61.0857 195.776 62.1382C196.828 63.1906 196.828 64.8972 195.776 65.9498C188.622 73.1033 188.622 84.7428 195.776 91.896C196.828 92.9485 196.828 94.6551 195.776 95.7077C195.249 96.234 194.559 96.4972 193.87 96.4972V96.4972Z" fill="black"/>
<path d="M203.98 88.183C203.291 88.183 202.601 87.9198 202.075 87.3935C197.404 82.7227 197.404 75.1229 202.075 70.4522C203.127 69.3998 204.834 69.3998 205.886 70.4522C206.939 71.5046 206.939 73.2113 205.886 74.2638C203.317 76.8328 203.317 81.013 205.886 83.5818C206.939 84.6342 206.939 86.3409 205.886 87.3935C205.36 87.9199 204.67 88.183 203.98 88.183V88.183Z" fill="black"/>
<path d="M183.731 104.585C183.041 104.585 182.352 104.322 181.826 103.796C168.111 90.0808 168.111 67.7652 181.826 54.0503C182.878 52.9979 184.585 52.9979 185.637 54.0503C186.69 55.1027 186.69 56.8094 185.637 57.862C174.024 69.4751 174.024 88.371 185.637 99.9838C186.69 101.036 186.69 102.743 185.637 103.796C185.111 104.322 184.421 104.585 183.731 104.585Z" fill="black"/>
<path d="M253.766 111C252.739 111 251.758 110.41 251.308 109.413L247.674 101.367C247.11 100.118 245.856 99.3255 244.492 99.351C239.707 99.4345 233.829 99.5229 230.83 99.4636C227.603 99.3998 225.723 98.0299 224.713 96.892C223.315 95.3156 222.673 93.1617 222.906 90.8276C223.041 89.4749 222.676 89.014 221.948 88.0964C221.398 87.4023 220.712 86.5385 220.382 85.3084C219.88 83.4409 220.613 81.4054 222.249 80.1228C222.322 80.0657 222.398 80.012 222.477 79.9624L227.892 76.5557L219.798 73.4849C219.729 73.4587 219.661 73.4296 219.595 73.3979C217.661 72.4765 216.591 70.3634 216.992 68.2597L218.039 62.7633C218.146 62.203 218.023 61.6384 217.692 61.1736C217.361 60.7086 216.868 60.4069 216.304 60.3238L210.975 59.5406C209.501 59.3235 208.236 58.3913 207.594 57.0471C206.951 55.7031 207.018 54.1339 207.775 52.8502L217.931 35.6115C219.476 32.9894 220.085 29.8868 219.647 26.8751L218.95 22.0836C218.736 20.6105 219.756 19.2426 221.229 19.0284C222.703 18.8142 224.07 19.8346 224.285 21.3077L224.982 26.0992C225.596 30.3218 224.741 34.6718 222.575 38.348L213.114 54.4066L217.088 54.9908C219.12 55.2898 220.894 56.376 222.084 58.0492C223.275 59.7224 223.719 61.7549 223.334 63.772L222.395 68.7046L231.492 72.1558C233.095 72.7642 234.198 74.2026 234.368 75.9098C234.538 77.6169 233.742 79.2449 232.29 80.1584L225.788 84.2484C225.901 84.4058 226.044 84.5864 226.171 84.7463C227.088 85.9022 228.623 87.8367 228.27 91.364C228.223 91.8389 228.221 92.7236 228.746 93.3146C229.28 93.9171 230.232 94.06 230.936 94.0741C233.846 94.1315 239.659 94.0441 244.398 93.9611C247.921 93.9061 251.136 95.9355 252.587 99.1481L256.221 107.195C256.834 108.551 256.23 110.148 254.874 110.76C254.514 110.923 254.137 111 253.766 111V111ZM229.58 77.1958H229.581H229.58Z" fill="black"/>
</g>
<path d="M182.5 14.8099C164 5.14325 117.4 -8.39008 79 14.8099" stroke="black" stroke-width="3" stroke-linejoin="round"/>
<path d="M75 125C93.5 134.667 140.1 148.2 178.5 125" stroke="black" stroke-width="3" stroke-linejoin="round"/>
</mask>
<g mask="url(#mask0)">
<rect x="-10" y="-18" width="284" height="177" fill="url(#paint0_linear)"/>
</g>
<defs>
<linearGradient id="paint0_linear" x1="279.5" y1="57" x2="-15" y2="55" gradientUnits="userSpaceOnUse">
<stop stop-color="#0E69F2"/>
<stop offset="1" stop-color="#2E9BFF"/>
</linearGradient>
<clipPath id="clip0">
<rect width="92" height="92" fill="white" transform="translate(168 19)"/>
</clipPath>
</defs>
</svg>
